<svg width="20" height="20" viewBox="0 0 20 20" fill="none" xmlns="http://www.w3.org/2000/svg">
<path d="M13.1394 5.2553C11.7662 5.2553 10.6699 6.09983 9.9545 6.09983C9.20443 6.09983 8.21204 5.30222 7.02347 5.30222C4.78482 5.30222 2.5 7.20241 2.5 10.7565C2.5 12.9851 3.34238 15.3193 4.38093 16.8324C5.28101 18.1109 6.0657 19.1666 7.18503 19.1666C8.30435 19.1666 8.80055 18.4042 10.1853 18.4042C11.5816 18.4042 11.9047 19.1431 13.1394 19.1431C14.351 19.1431 15.1703 18.0054 15.9319 16.8793C16.7974 15.5891 17.1551 14.3457 17.1667 14.2753C17.0974 14.2519 14.7665 13.2901 14.7665 10.5688C14.7665 8.21116 16.6012 7.16722 16.7051 7.08512C15.4934 5.30222 13.6471 5.2553 13.1394 5.2553ZM12.4932 3.75392C13.0471 3.0736 13.451 2.13524 13.451 1.19687C13.451 1.06784 13.4394 0.938818 13.4163 0.833252C12.5047 0.868441 11.4085 1.44319 10.7623 2.21734C10.2545 2.81555 9.76987 3.75392 9.76987 4.70401C9.76987 4.84477 9.79295 4.98552 9.80449 5.03244C9.86218 5.04417 9.9545 5.0559 10.0468 5.0559C10.8661 5.0559 11.8931 4.50461 12.4932 3.75392Z" fill="white"/>
</svg>
