<svg width="24" height="24" viewBox="0 0 24 24" fill="none" xmlns="http://www.w3.org/2000/svg">
<path d="M6.32405 5.53079C6.56713 5.47571 6.82125 5.49415 7.05354 5.5845C7.0751 5.59289 7.09624 5.60267 7.11702 5.61282L20.702 12.2505C20.988 12.3903 21.1698 12.6812 21.1698 12.9995C21.1698 13.3179 20.988 13.6088 20.702 13.7486L7.11702 20.3863C7.09624 20.3964 7.0751 20.4062 7.05354 20.4146C6.82125 20.5049 6.56714 20.5234 6.32405 20.4683C6.08089 20.4131 5.8589 20.2869 5.68831 20.105C5.52582 19.9317 5.41418 19.7164 5.36507 19.4839C5.31634 19.2531 5.33099 19.0134 5.40804 18.7906L7.09065 13.8326H15.3358C15.7959 13.8325 16.1698 13.4597 16.1698 12.9995C16.1698 12.5394 15.7959 12.1666 15.3358 12.1665H7.09065L5.40804 7.20853C5.33099 6.98566 5.31634 6.74595 5.36507 6.51517C5.41415 6.28285 5.52598 6.06833 5.68831 5.89505C5.85892 5.71312 6.08083 5.58603 6.32405 5.53079Z" fill="#656DF0"/>
</svg>
