<svg width="24" height="24" viewBox="0 0 24 24" fill="none" xmlns="http://www.w3.org/2000/svg">
<path d="M6.32308 5.53088C6.56634 5.47564 6.82107 5.49417 7.05355 5.58459C7.07515 5.593 7.09621 5.60274 7.11703 5.61291L20.702 12.2506C20.988 12.3904 21.1698 12.6813 21.1698 12.9996C21.1698 13.318 20.988 13.6089 20.702 13.7487L7.11703 20.3864C7.09621 20.3965 7.07514 20.4063 7.05355 20.4147C6.82107 20.5051 6.56634 20.5236 6.32308 20.4684C6.08006 20.4131 5.85882 20.2869 5.68832 20.1051V20.1041C5.52594 19.9308 5.41417 19.7164 5.36508 19.484C5.31634 19.2532 5.33099 19.0135 5.40804 18.7906L7.37289 12.9996L5.40804 7.20862C5.33099 6.98573 5.31634 6.74606 5.36508 6.51526C5.41417 6.28289 5.52594 6.06844 5.68832 5.89514L5.82504 5.76916C5.97061 5.65406 6.14061 5.57238 6.32308 5.53088ZM7.28402 18.4508L16.7332 13.8326H8.85043L7.28402 18.4508ZM8.85043 12.1666H16.7332L7.28402 7.54846L8.85043 12.1666Z" fill="#AFB8F1"/>
</svg>
