<svg width="24" height="24" viewBox="0 0 24 24" fill="none" xmlns="http://www.w3.org/2000/svg">
<g clip-path="url(#clip0_374_2852)">
<path d="M18 5.3313C17.0027 7.33126 16.3337 8.33163 15.667 8.99829L15 9.66431L16 10.3313C15.3333 12.3312 13.3335 14.6649 10.667 14.9983C8.88795 15.2205 7.77607 16.4423 7.33203 18.6643H6L6.04297 18.4084C6.72698 14.281 8.20818 5.33133 18 5.3313ZM6.66699 3.99927C6.73478 3.99927 6.80141 4.01968 6.85742 4.05786C6.91338 4.09603 6.95667 4.15009 6.98145 4.21313L7.15039 4.62036C7.43344 5.31018 7.97041 5.86517 8.65039 6.17114L9.12891 6.38501C9.18997 6.41334 9.24207 6.45817 9.27832 6.51489C9.31461 6.5717 9.33398 6.63791 9.33398 6.70532C9.33397 6.77273 9.31462 6.83895 9.27832 6.89575C9.24206 6.95248 9.18998 6.99731 9.12891 7.02563L8.62207 7.25122C7.95861 7.5488 7.43063 8.08455 7.14258 8.7522L6.97852 9.12915C6.95289 9.19059 6.90892 9.2436 6.85352 9.28052C6.79827 9.31722 6.73332 9.3371 6.66699 9.33716C6.60045 9.33716 6.53488 9.3174 6.47949 9.28052C6.42409 9.2436 6.3811 9.19059 6.35547 9.12915L6.19141 8.7522C5.90306 8.08468 5.37453 7.54948 4.71094 7.2522L4.20508 7.02563C4.14392 6.99742 4.09204 6.95244 4.05566 6.89575C4.01928 6.83897 4.00008 6.77275 4 6.70532C4 6.63775 4.01921 6.57081 4.05566 6.51392C4.09205 6.45727 4.14394 6.41223 4.20508 6.38403L4.68359 6.17114C5.36376 5.86537 5.90033 5.31021 6.18359 4.62036L6.35352 4.21313C6.3783 4.1501 6.42157 4.09601 6.47754 4.05786C6.53342 4.01979 6.59938 3.99935 6.66699 3.99927Z" fill="url(#paint0_linear_374_2852)"/>
</g>
<defs>
<linearGradient id="paint0_linear_374_2852" x1="0.5" y1="7.46185" x2="9.51292" y2="21.9485" gradientUnits="userSpaceOnUse">
<stop stop-color="#D097DB"/>
<stop offset="1" stop-color="#8887EE"/>
</linearGradient>
<clipPath id="clip0_374_2852">
<rect width="16" height="16" fill="white" transform="translate(4 4)"/>
</clipPath>
</defs>
</svg>
