<svg width="17" height="17" viewBox="0 0 17 17" fill="none" xmlns="http://www.w3.org/2000/svg">
    <path d="M17.002 7.30105C17.002 3.71605 13.408 0.800049 8.99122 0.800049C4.57447 0.800049 0.980469 3.7168 0.980469 7.30105C0.980469 10.5148 3.83047 13.2058 7.68022 13.715C7.94122 13.7713 8.29597 13.8868 8.38597 14.1103C8.46697 14.3128 8.43847 14.63 8.41222 14.8348C8.41222 14.8348 8.31847 15.4003 8.29822 15.5203C8.26297 15.7228 8.13697 16.3123 8.99197 15.9523C9.84697 15.5923 13.6052 13.2358 15.286 11.3015C16.447 10.028 17.0035 8.73655 17.0035 7.3018L17.002 7.30105Z" fill="white"/>
    <path d="M14.3373 9.3711C14.4221 9.3711 14.4903 9.30285 14.4903 9.2181V8.6496C14.4903 8.5656 14.4213 8.4966 14.3373 8.4966H12.8081V7.90635H14.3373C14.4221 7.90635 14.4903 7.8381 14.4903 7.75335V7.1856C14.4903 7.1016 14.4213 7.0326 14.3373 7.0326H12.8081V6.44235H14.3373C14.4221 6.44235 14.4903 6.3741 14.4903 6.28935V5.7216C14.4903 5.6376 14.4213 5.5686 14.3373 5.5686H12.0866C12.0018 5.5686 11.9336 5.63685 11.9336 5.7216V5.7246V9.2151V9.2181C11.9336 9.30285 12.0018 9.3711 12.0866 9.3711H14.3373Z" fill="#4CC764"/>
    <path d="M6.01312 9.3711C6.09787 9.3711 6.16612 9.30285 6.16612 9.2181V8.6496C6.16612 8.5656 6.09712 8.4966 6.01312 8.4966H4.48387V5.7216C4.48387 5.6376 4.41487 5.5686 4.33087 5.5686H3.76238C3.67763 5.5686 3.60938 5.63685 3.60938 5.7216V9.2151V9.2181C3.60938 9.30285 3.67763 9.3711 3.76238 9.3711H6.01312Z" fill="#4CC764"/>
    <path d="M7.36723 5.5686H6.79949C6.71499 5.5686 6.64648 5.6371 6.64648 5.7216V9.21735C6.64648 9.30185 6.71499 9.37035 6.79949 9.37035H7.36723C7.45173 9.37035 7.52024 9.30185 7.52024 9.21735V5.7216C7.52024 5.6371 7.45173 5.5686 7.36723 5.5686Z" fill="#4CC764"/>
    <path d="M11.2344 5.5686H10.6659C10.5812 5.5686 10.5129 5.63685 10.5129 5.7216V7.79835L8.91316 5.63835C8.90941 5.6331 8.90491 5.62785 8.90116 5.6226C8.90116 5.6226 8.90116 5.6226 8.90041 5.62185C8.89741 5.61885 8.89441 5.6151 8.89141 5.6121C8.89066 5.61135 8.88916 5.6106 8.88841 5.60985C8.88541 5.6076 8.88316 5.60535 8.88016 5.6031C8.87866 5.60235 8.87716 5.60085 8.87566 5.6001C8.87341 5.59785 8.87041 5.59635 8.86741 5.59485C8.86591 5.5941 8.86441 5.5926 8.86291 5.59185C8.85991 5.59035 8.85766 5.58885 8.85466 5.58735C8.85316 5.5866 8.85166 5.58585 8.85016 5.5851C8.84716 5.5836 8.84416 5.5821 8.84116 5.58135C8.83966 5.58135 8.83816 5.57985 8.83591 5.57985C8.83291 5.5791 8.82991 5.5776 8.82691 5.57685C8.82541 5.57685 8.82316 5.5761 8.82166 5.57535C8.81866 5.57535 8.81566 5.57385 8.81266 5.5731C8.81041 5.5731 8.80816 5.5731 8.80591 5.57235C8.80291 5.57235 8.80066 5.5716 8.79766 5.5716C8.79466 5.5716 8.79241 5.5716 8.78941 5.5716C8.78791 5.5716 8.78566 5.5716 8.78416 5.5716H8.21941C8.13466 5.5716 8.06641 5.63985 8.06641 5.7246V9.2211C8.06641 9.30585 8.13466 9.3741 8.21941 9.3741H8.78791C8.87266 9.3741 8.94091 9.30585 8.94091 9.2211V7.1451L10.5422 9.3081C10.5534 9.32385 10.5669 9.3366 10.5819 9.34635C10.5819 9.34635 10.5834 9.3471 10.5834 9.34785C10.5864 9.3501 10.5894 9.3516 10.5932 9.35385C10.5947 9.3546 10.5962 9.35535 10.5977 9.3561C10.5999 9.3576 10.6029 9.35835 10.6052 9.35985C10.6074 9.36135 10.6104 9.3621 10.6127 9.36285C10.6142 9.36285 10.6157 9.36435 10.6172 9.36435C10.6209 9.36585 10.6239 9.3666 10.6277 9.36735C10.6277 9.36735 10.6292 9.36735 10.6299 9.36735C10.6427 9.37035 10.6562 9.3726 10.6697 9.3726H11.2344C11.3192 9.3726 11.3874 9.30435 11.3874 9.2196V5.7231C11.3874 5.63835 11.3192 5.5701 11.2344 5.5701V5.5686Z" fill="#4CC764"/>
</svg>
