<svg width="20" height="20" viewBox="0 0 20 20" fill="none" xmlns="http://www.w3.org/2000/svg">
<path d="M16.1006 2.59998C16.8167 2.59998 17.5034 2.88465 18.0098 3.39099C18.5161 3.89733 18.8008 4.58411 18.8008 5.30017V14.3002C18.8007 15.0161 18.516 15.7031 18.0098 16.2094C17.5034 16.7155 16.8166 16.9994 16.1006 16.9994H3.50098C2.785 16.9994 2.09812 16.7156 1.5918 16.2094C1.08553 15.7031 0.800866 15.0161 0.800781 14.3002V5.30017C0.800781 4.58412 1.08549 3.89733 1.5918 3.39099C2.09814 2.88465 2.7849 2.59998 3.50098 2.59998H16.1006ZM10.2998 11.4486C9.99754 11.6501 9.60402 11.6501 9.30176 11.4486L2.60059 6.98181V14.3002C2.60067 14.5386 2.69572 14.7672 2.86426 14.9359C3.03304 15.1047 3.26228 15.1996 3.50098 15.1996H16.1006C16.3393 15.1996 16.5685 15.1047 16.7373 14.9359C16.9058 14.7672 17.0009 14.5386 17.001 14.3002V6.98181L10.2998 11.4486ZM3.50098 4.39978C3.26228 4.39978 3.03304 4.49467 2.86426 4.66345C2.79855 4.72917 2.7442 4.80416 2.70215 4.88513L9.80078 9.61853L16.8984 4.88513C16.8564 4.80431 16.8029 4.72906 16.7373 4.66345C16.5685 4.49467 16.3393 4.39978 16.1006 4.39978H3.50098Z" fill="white"/>
</svg>
