<svg width="24" height="24" viewBox="0 0 24 24" fill="none" xmlns="http://www.w3.org/2000/svg">
<g clip-path="url(#clip0_374_2859)">
<path d="M9.99977 5.33325C11.2948 5.33305 12.546 5.80409 13.5193 6.65845C14.4926 7.51287 15.1223 8.69257 15.2898 9.97681L16.7898 12.3362C16.8882 12.4915 16.8679 12.7229 16.6394 12.8215L15.3338 13.3801V15.3333C15.3338 15.6867 15.193 16.0256 14.9431 16.2756C14.6931 16.5257 14.3534 16.6663 13.9998 16.6663H12.6677L12.6668 18.6663H6.66676V16.2043C6.66676 15.4177 6.37633 14.6722 5.83766 14.0002C5.20954 13.2159 4.81502 12.2701 4.70094 11.2717C4.58696 10.2736 4.75725 9.2633 5.19215 8.35767C5.62712 7.452 6.30956 6.68765 7.15993 6.15259C8.01039 5.61756 8.99502 5.33334 9.99977 5.33325ZM19.2127 10.6663C19.2927 11.0996 19.3333 11.5447 19.3338 12.0002C19.3337 13.5055 18.8796 14.9037 18.1023 16.0676L16.9929 15.3284C17.6512 14.3436 18.0014 13.1848 17.9998 12.0002C17.9993 11.6595 17.9724 11.3259 17.9177 11.0002L19.2127 10.6663ZM17.3338 3.99927C17.4015 3.99927 17.4682 4.01968 17.5242 4.05786C17.5801 4.09603 17.6234 4.1501 17.6482 4.21313L17.8172 4.62036C18.1002 5.31017 18.6372 5.86517 19.3172 6.17114L19.7957 6.38501C19.8567 6.41334 19.9088 6.45819 19.9451 6.51489C19.9814 6.57169 20.0007 6.63792 20.0007 6.70532C20.0007 6.77273 19.9814 6.83895 19.9451 6.89575C19.9088 6.95247 19.8567 6.99731 19.7957 7.02563L19.2888 7.25122C18.6254 7.5488 18.0974 8.08455 17.8093 8.7522L17.6443 9.12915C17.6187 9.19056 17.5757 9.24361 17.5203 9.28052C17.465 9.31723 17.4001 9.33709 17.3338 9.33716C17.2672 9.33716 17.2016 9.31738 17.1463 9.28052C17.0909 9.2436 17.0479 9.19059 17.0222 9.12915L16.8582 8.7522C16.5698 8.08468 16.0413 7.54948 15.3777 7.2522L14.8718 7.02563C14.8107 6.99743 14.7588 6.95244 14.7224 6.89575C14.686 6.83897 14.6668 6.77275 14.6668 6.70532C14.6668 6.63775 14.686 6.57081 14.7224 6.51392C14.7588 6.45726 14.8107 6.41222 14.8718 6.38403L15.3504 6.17114C16.0305 5.86537 16.5671 5.31019 16.8504 4.62036L17.0203 4.21313C17.0451 4.15011 17.0883 4.09601 17.1443 4.05786C17.2002 4.0198 17.2661 3.99933 17.3338 3.99927Z" fill="url(#paint0_linear_374_2859)"/>
</g>
<defs>
<linearGradient id="paint0_linear_374_2859" x1="0.832943" y1="7.46231" x2="9.46421" y2="22.6557" gradientUnits="userSpaceOnUse">
<stop stop-color="#D097DB"/>
<stop offset="1" stop-color="#8887EE"/>
</linearGradient>
<clipPath id="clip0_374_2859">
<rect width="16" height="16" fill="white" transform="translate(4 4)"/>
</clipPath>
</defs>
</svg>
