<svg width="20" height="20" viewBox="0 0 20 20" fill="none" xmlns="http://www.w3.org/2000/svg">
<path d="M13.9004 1C14.6163 1.0001 15.3033 1.28476 15.8096 1.79102C16.3157 2.29734 16.5996 2.98425 16.5996 3.7002V16.2998C16.5996 17.0158 16.3157 17.7027 15.8096 18.209C15.3033 18.7152 14.6163 18.9999 13.9004 19H6.7002C5.98411 19 5.29736 18.7153 4.79102 18.209C4.28467 17.7026 4 17.0159 4 16.2998V3.7002C4 2.98411 4.28467 2.29736 4.79102 1.79102C5.29736 1.28467 5.98411 1 6.7002 1H13.9004ZM5.7998 15.4004V16.2998C5.7998 16.5385 5.89469 16.7677 6.06348 16.9365C6.23226 17.1053 6.4615 17.2002 6.7002 17.2002H13.9004C14.1389 17.2001 14.3675 17.1051 14.5361 16.9365C14.7049 16.7677 14.7998 16.5385 14.7998 16.2998V15.4004H5.7998ZM6.7002 2.7998C6.4615 2.7998 6.23226 2.89469 6.06348 3.06348C5.89469 3.23226 5.7998 3.4615 5.7998 3.7002V13.5996H14.7998V3.7002C14.7998 3.4615 14.7049 3.23226 14.5361 3.06348C14.3675 2.89491 14.1389 2.79991 13.9004 2.7998H6.7002Z" fill="white"/>
</svg>
