<svg width="12" height="12" viewBox="0 0 12 12" fill="none" xmlns="http://www.w3.org/2000/svg">
<path d="M7.19575 0.195181C7.45611 -0.0650061 7.87784 -0.0651145 8.13813 0.195181L11.8051 3.86217C12.0651 4.12249 12.0652 4.5443 11.8051 4.80456C11.5928 5.01685 11.2729 5.05566 11.0209 4.92174L8.90669 7.036L7.95747 9.56725C7.92408 9.65627 7.87233 9.7373 7.80513 9.80456L6.80513 10.8046C6.54478 11.0649 6.12212 11.0649 5.86177 10.8046L4.00044 8.94225L1.47114 11.4715C1.21082 11.7315 0.789012 11.7316 0.528758 11.4715C0.268409 11.2112 0.268409 10.7885 0.528758 10.5282L3.05708 7.99987L1.19575 6.13756C0.935401 5.87721 0.935401 5.45553 1.19575 5.19518L2.19575 4.19518C2.26301 4.12797 2.34402 4.07525 2.43306 4.04186L4.9643 3.09264L7.07759 0.979361C6.94368 0.727365 6.98346 0.407467 7.19575 0.195181ZM5.80513 4.13756C5.73789 4.2048 5.65684 4.25747 5.56782 4.29088L3.03559 5.2401L2.60981 5.66686L6.33345 9.39049L6.7602 8.96374L7.70942 6.43249C7.74281 6.34346 7.79456 6.26243 7.86177 6.19518L10.0571 3.99987L8.00044 1.94225L5.80513 4.13756Z" fill="#8792CF"/>
</svg>
