<svg width="18" height="18" viewBox="0 0 18 18" fill="none" xmlns="http://www.w3.org/2000/svg">
<path d="M12.1129 0.209703L12.2069 0.292703L17.7069 5.7927C17.8755 5.96218 17.9778 6.18643 17.9952 6.42483C18.0127 6.66323 17.9442 6.9 17.8021 7.09225C17.6601 7.28449 17.4538 7.41948 17.2208 7.47276C16.9878 7.52605 16.7434 7.4941 16.5319 7.3827L13.3599 10.5537L11.9359 14.3507C11.8984 14.4509 11.845 14.5444 11.7779 14.6277L11.7079 14.7077L10.2079 16.2077C10.0356 16.3797 9.8064 16.483 9.56338 16.4981C9.32035 16.5132 9.08017 16.4391 8.88788 16.2897L8.79288 16.2067L5.99988 13.4147L2.20688 17.2067C2.02693 17.3861 1.78545 17.4902 1.5315 17.4979C1.27755 17.5057 1.03017 17.4165 0.839606 17.2485C0.64904 17.0804 0.529579 16.8461 0.505486 16.5932C0.481392 16.3403 0.554473 16.0877 0.709884 15.8867L0.792884 15.7927L4.58488 11.9997L1.79288 9.2067C1.62071 9.03451 1.51728 8.80541 1.502 8.56238C1.48671 8.31936 1.56063 8.07911 1.70988 7.8867L1.79288 7.7927L3.29288 6.2927C3.36834 6.21698 3.45544 6.15385 3.55088 6.1057L3.64888 6.0637L7.44488 4.6387L10.6159 1.4687C10.5078 1.26653 10.4724 1.03335 10.5157 0.808207C10.559 0.583064 10.6783 0.379637 10.8537 0.232C11.0291 0.0843631 11.25 0.0014828 11.4792 -0.00275845C11.7084 -0.00699969 11.9321 0.0686558 12.1129 0.209703Z" fill="#656DF0"/>
</svg>