<svg width="19" height="20" viewBox="0 0 19 20" fill="none" xmlns="http://www.w3.org/2000/svg">
<path d="M9.12357 16.5996C7.87643 16.5996 6.72814 16.3937 5.67871 15.9819C4.62928 15.5702 3.71673 14.9983 2.94106 14.2662C2.1654 13.519 1.56464 12.6497 1.13878 11.6584C0.712928 10.6518 0.5 9.55379 0.5 8.36424C0.5 7.1747 0.712928 6.08428 1.13878 5.09299C1.56464 4.08644 2.1654 3.21716 2.94106 2.48513C3.71673 1.73785 4.62928 1.15832 5.67871 0.746557C6.72814 0.33479 7.86882 0.128906 9.10076 0.128906C10.3479 0.128906 11.4886 0.33479 12.5228 0.746557C13.5722 1.15832 14.4848 1.73022 15.2605 2.46225C16.0361 3.19428 16.6369 4.06357 17.0627 5.07011C17.4886 6.07665 17.7015 7.1747 17.7015 8.36424C17.7015 9.55379 17.4886 10.6518 17.0627 11.6584C16.6369 12.6649 16.0361 13.5342 15.2605 14.2662C14.4848 14.9983 13.5722 15.5702 12.5228 15.9819C11.4886 16.3937 10.3555 16.5996 9.12357 16.5996ZM14.3251 19.8708C13.7624 19.8708 13.2148 19.8022 12.6825 19.665C12.1654 19.543 11.6483 19.3294 11.1312 19.0244C10.6293 18.7347 10.1046 18.3458 9.55703 17.8578C9.00951 17.385 8.40875 16.7978 7.75475 16.0963L10.903 15.2728C11.3289 15.8371 11.7319 16.2869 12.1122 16.6225C12.5076 16.9732 12.8878 17.2249 13.2529 17.3774C13.6179 17.5299 13.9981 17.6061 14.3935 17.6061C15.443 17.6061 16.3555 17.1791 17.1312 16.3251L18.5 17.9721C17.4354 19.2379 16.0437 19.8708 14.3251 19.8708ZM9.10076 13.9917C9.90684 13.9917 10.6521 13.8545 11.3365 13.58C12.0209 13.3054 12.6141 12.9166 13.116 12.4133C13.6179 11.8948 14.0057 11.2924 14.2795 10.6061C14.5684 9.91981 14.7129 9.17253 14.7129 8.36424C14.7129 7.54071 14.5684 6.79343 14.2795 6.1224C14.0057 5.43612 13.6179 4.84135 13.116 4.33808C12.6141 3.81956 12.0209 3.42304 11.3365 3.14853C10.6521 2.87402 9.90684 2.73676 9.10076 2.73676C8.29468 2.73676 7.54943 2.87402 6.86502 3.14853C6.18061 3.42304 5.58745 3.81956 5.08555 4.33808C4.58365 4.84135 4.18821 5.43612 3.89924 6.1224C3.62548 6.79343 3.48859 7.54071 3.48859 8.36424C3.48859 9.17253 3.62548 9.91981 3.89924 10.6061C4.18821 11.2924 4.58365 11.8948 5.08555 12.4133C5.58745 12.9166 6.18061 13.3054 6.86502 13.58C7.54943 13.8545 8.29468 13.9917 9.10076 13.9917Z" fill="url(#paint0_linear_968_9359)"/>
<defs>
<linearGradient id="paint0_linear_968_9359" x1="-4" y1="4.7902" x2="8.37139" y2="23.7817" gradientUnits="userSpaceOnUse">
<stop stop-color="#D097DB"/>
<stop offset="1" stop-color="#EE87D6"/>
</linearGradient>
</defs>
</svg>
