<svg width="15" height="12" viewBox="0 0 15 12" fill="none" xmlns="http://www.w3.org/2000/svg">
<path d="M14.92 5.61994C14.8724 5.49719 14.801 5.38505 14.71 5.28994L9.71 0.289941C9.61676 0.196703 9.50607 0.122742 9.38425 0.0722818C9.26243 0.0218215 9.13186 -0.00415039 9 -0.00415039C8.7337 -0.00415039 8.4783 0.101638 8.29 0.289941C8.19676 0.38318 8.1228 0.49387 8.07234 0.615692C8.02188 0.737514 7.99591 0.868082 7.99591 0.999941C7.99591 1.26624 8.1017 1.52164 8.29 1.70994L11.59 4.99994H1C0.734784 4.99994 0.48043 5.1053 0.292893 5.29283C0.105357 5.48037 0 5.73472 0 5.99994C0 6.26516 0.105357 6.51951 0.292893 6.70705C0.48043 6.89458 0.734784 6.99994 1 6.99994H11.59L8.29 10.2899C8.19627 10.3829 8.12188 10.4935 8.07111 10.6154C8.02034 10.7372 7.9942 10.8679 7.9942 10.9999C7.9942 11.132 8.02034 11.2627 8.07111 11.3845C8.12188 11.5064 8.19627 11.617 8.29 11.7099C8.38296 11.8037 8.49356 11.8781 8.61542 11.9288C8.73728 11.9796 8.86799 12.0057 9 12.0057C9.13201 12.0057 9.26272 11.9796 9.38458 11.9288C9.50644 11.8781 9.61704 11.8037 9.71 11.7099L14.71 6.70994C14.801 6.61484 14.8724 6.50269 14.92 6.37994C15.02 6.13648 15.02 5.8634 14.92 5.61994Z" fill="white"/>
</svg>
