<svg width="24" height="24" viewBox="0 0 24 24" fill="none" xmlns="http://www.w3.org/2000/svg">
<path d="M17.3091 2.16845C17.3519 2.02673 17.4224 1.89486 17.5163 1.78041C17.6102 1.66595 17.7258 1.57117 17.8565 1.50149C17.9871 1.43182 18.1302 1.38861 18.2776 1.37436C18.425 1.36011 18.5737 1.3751 18.7153 1.41845C19.7252 1.72809 20.6488 2.26935 21.4125 2.99908C21.6241 3.20614 21.7455 3.48827 21.7505 3.78429C21.7555 4.0803 21.6435 4.36634 21.439 4.58038C21.2345 4.79442 20.9538 4.9192 20.6579 4.92768C20.3619 4.93615 20.0746 4.82763 19.8581 4.62564C19.3479 4.14046 18.7316 3.78094 18.0581 3.57564C17.9164 3.53268 17.7845 3.46216 17.6701 3.36812C17.5557 3.27407 17.4609 3.15836 17.3913 3.02762C17.3217 2.89687 17.2787 2.75368 17.2645 2.60624C17.2504 2.4588 17.2655 2.31003 17.3091 2.16845ZM21.8297 15.7303C21.3883 17.3781 20.4682 18.8581 19.1857 19.983C17.9033 21.1078 16.316 21.8272 14.6247 22.0499C12.9334 22.2727 11.2141 21.9889 9.68403 21.2345C8.15401 20.4801 6.88207 19.2889 6.02906 17.8116L2.27907 11.3128C1.88204 10.6243 1.77445 9.80638 1.97993 9.03862C2.1854 8.27085 2.68715 7.616 3.375 7.21783C3.59695 7.08963 3.83454 6.99069 4.08188 6.92345C3.80342 6.34349 3.71877 5.68938 3.84043 5.05764C3.9621 4.4259 4.28362 3.85001 4.75755 3.41494C5.23149 2.97988 5.83273 2.7087 6.47255 2.64141C7.11237 2.57413 7.75687 2.71431 8.31094 3.04127C8.61205 2.65217 9.00423 2.34311 9.45293 2.1413C9.90163 1.93949 10.3931 1.85113 10.884 1.88401C11.3749 1.9169 11.8501 2.07 12.2679 2.32985C12.6857 2.5897 13.0332 2.9483 13.2797 3.37408L14.6419 5.73377C14.9686 5.4123 15.3645 5.16995 15.7995 5.02533C16.2344 4.88071 16.6966 4.83766 17.1508 4.89949C17.6049 4.96131 18.0388 5.12637 18.4192 5.38198C18.7997 5.6376 19.1165 5.97698 19.3453 6.37408L20.9681 9.18658C21.5373 10.1662 21.9065 11.2489 22.0544 12.3722C22.2023 13.4954 22.1259 14.6368 21.8297 15.7303ZM19.0172 10.3106L17.3972 7.49908C17.3479 7.41376 17.2824 7.33898 17.2042 7.279C17.1261 7.21902 17.0369 7.17502 16.9417 7.14951C16.8466 7.12401 16.7473 7.11749 16.6497 7.13034C16.552 7.14319 16.4578 7.17514 16.3725 7.22439C16.2872 7.27364 16.2124 7.3392 16.1524 7.41735C16.0924 7.4955 16.0484 7.58469 16.0229 7.67984C15.9974 7.775 15.9909 7.87424 16.0038 7.97191C16.0166 8.06958 16.0486 8.16376 16.0978 8.24908L16.7241 9.33377C16.8615 9.57176 16.907 9.8518 16.8521 10.1211C16.7971 10.3903 16.6456 10.6302 16.4259 10.7953C15.8861 11.1995 15.5226 11.796 15.4107 12.461C15.2988 13.126 15.4472 13.8086 15.825 14.3672C15.9126 14.4893 15.9748 14.6277 16.008 14.7742C16.0413 14.9208 16.0448 15.0725 16.0184 15.2204C15.992 15.3683 15.9363 15.5095 15.8545 15.6355C15.7727 15.7616 15.6664 15.8699 15.542 15.9542C15.4177 16.0385 15.2776 16.097 15.1303 16.1264C14.9829 16.1557 14.8311 16.1551 14.684 16.1248C14.5368 16.0945 14.3972 16.035 14.2734 15.9499C14.1496 15.8647 14.0441 15.7557 13.9631 15.6291C13.3595 14.7369 13.068 13.6701 13.1342 12.595C13.2003 11.5198 13.6203 10.4968 14.3288 9.68533L11.3344 4.49908C11.2349 4.32627 11.0709 4.20005 10.8784 4.14819C10.6859 4.09632 10.4806 4.12306 10.3078 4.22252C10.135 4.32197 10.0088 4.486 9.95693 4.67852C9.90506 4.87104 9.9318 5.07627 10.0313 5.24908L12.3047 9.18658C12.3818 9.31463 12.4326 9.45675 12.4541 9.60465C12.4757 9.75256 12.4675 9.90327 12.4302 10.048C12.3928 10.1927 12.327 10.3285 12.2366 10.4475C12.1462 10.5665 12.0329 10.6663 11.9035 10.7411C11.774 10.8158 11.631 10.864 11.4828 10.8829C11.3345 10.9017 11.1839 10.8908 11.0399 10.8508C10.8959 10.8109 10.7613 10.7426 10.644 10.65C10.5266 10.5574 10.4289 10.4424 10.3566 10.3116L7.43719 5.24908C7.33499 5.08243 7.17175 4.96227 6.98226 4.9142C6.79277 4.86614 6.592 4.89395 6.42272 4.99173C6.25344 5.08952 6.12902 5.24953 6.07598 5.43769C6.02294 5.62585 6.04546 5.82728 6.13875 5.99908L9.28125 11.4366C9.424 11.6945 9.45979 11.9982 9.38092 12.2823C9.30205 12.5663 9.11483 12.8081 8.85952 12.9555C8.60422 13.103 8.30124 13.1443 8.01578 13.0706C7.73032 12.9969 7.48519 12.8141 7.33313 12.5616L5.52469 9.43689C5.4769 9.34888 5.41196 9.27132 5.33371 9.20881C5.25546 9.1463 5.16548 9.1001 5.06909 9.07292C4.97269 9.04575 4.87183 9.03816 4.77245 9.0506C4.67307 9.06303 4.57719 9.09525 4.49046 9.14535C4.40374 9.19544 4.32792 9.2624 4.26749 9.34227C4.20707 9.42213 4.16325 9.5133 4.13862 9.61038C4.11399 9.70745 4.10906 9.80848 4.12411 9.9075C4.13916 10.0065 4.17389 10.1015 4.22625 10.1869L7.97813 16.6866C8.82351 18.1508 10.2159 19.2193 11.8491 19.6569C12.6577 19.8736 13.5011 19.9288 14.3312 19.8196C15.1612 19.7103 15.9615 19.4386 16.6866 19.02C17.4116 18.6014 18.0471 18.0441 18.5567 17.38C19.0663 16.7158 19.4402 15.9577 19.6569 15.1491C19.8735 14.3404 19.9288 13.497 19.8195 12.667C19.7103 11.837 19.4386 11.0366 19.02 10.3116L19.0172 10.3106ZM4.73063 18.5616C4.65826 18.4308 4.56055 18.3158 4.44322 18.2232C4.32589 18.1306 4.19129 18.0623 4.04727 18.0223C3.90325 17.9823 3.75271 17.9714 3.60444 17.9903C3.45617 18.0091 3.31314 18.0573 3.18371 18.1321C3.05428 18.2068 2.94104 18.3066 2.8506 18.4256C2.76017 18.5446 2.69435 18.6804 2.657 18.8252C2.61965 18.9699 2.61151 19.1206 2.63306 19.2685C2.65461 19.4164 2.70541 19.5585 2.7825 19.6866C3.3019 20.5859 3.9318 21.4168 4.6575 22.1597C4.75974 22.2693 4.88285 22.3573 5.01959 22.4187C5.15634 22.48 5.30396 22.5134 5.4538 22.5169C5.60363 22.5204 5.75265 22.494 5.89211 22.4391C6.03157 22.3842 6.15866 22.302 6.26591 22.1973C6.37316 22.0926 6.45841 21.9675 6.51666 21.8295C6.5749 21.6914 6.60497 21.543 6.60508 21.3931C6.6052 21.2433 6.57538 21.0949 6.51735 20.9567C6.45932 20.8185 6.37427 20.6933 6.26719 20.5885C5.67274 19.9793 5.15657 19.2984 4.73063 18.5616Z" fill="white"/>
</svg>
